<?xml version="1.0" standalone="no"?>
<!DOCTYPE svg PUBLIC "-//W3C//DTD SVG 20010904//EN"
 "http://www.w3.org/TR/2001/REC-SVG-20010904/DTD/svg10.dtd">
<svg version="1.0" xmlns="http://www.w3.org/2000/svg"
 width="700.000000pt" height="700.000000pt" viewBox="0 0 700.000000 700.000000"
 preserveAspectRatio="xMidYMid meet">
<metadata>
Created by potrace 1.14, written by Peter Selinger 2001-2017
</metadata>
<g transform="translate(0.000000,700.000000) scale(0.100000,-0.100000)"
fill="#000000" stroke="none">
<path d="M1479 6996 c-2 -2 -29 -6 -59 -10 -343 -38 -677 -198 -929 -446 -106
-104 -145 -151 -216 -257 -136 -203 -226 -442 -262 -694 -11 -72 -10 -4095 0
-4179 4 -36 13 -85 18 -110 6 -25 13 -55 15 -68 10 -49 74 -231 105 -297 241
-509 716 -854 1269 -922 36 -4 978 -8 2095 -8 2175 0 2081 -2 2280 50 226 60
422 159 603 305 86 69 204 188 260 260 92 120 198 312 247 450 35 98 68 237
83 340 9 69 9 4083 0 4165 -61 536 -405 1020 -892 1259 -144 70 -283 114 -491
153 -40 7 -4118 17 -4126 9z"/>
</g>
</svg>
